# AST/ASF file generated using VICON BodyLanguage
# -----------------------------------------------
:version 1.10
:name VICON
:units
  mass 1.0
  length 0.45
  angle deg
:documentation
   .ast/.asf automatically generated from VICON data using
   VICON BodyBuilder and BodyLanguage model FoxedUp or BRILLIANT.MOD
:root
   order TX TY TZ RX RY RZ
   axis XYZ
   position 0 0 0  
   orientation 0 0 0 
:bonedata
  begin
     id 1 
     name lhipjoint
     direction 0.589753 -0.68606 0.426044 
     length 2.54082 
     axis 0 0 0  XYZ
  end
  begin
     id 2 
     name lfemur
     direction 0.34202 -0.939693 0  
     length 7.04539  
     axis 0 0 20  XYZ
    dof rx ry rz
    limits (-160.0 20.0)
           (-70.0 70.0)
           (-60.0 70.0)
  end
  begin
     id 3 
     name ltibia
     direction 0.34202 -0.939693 0   
     length 7.83772   
     axis 0 0 20   XYZ
    dof rx
    limits (-10.0 170.0)
  end
  begin
     id 4 
     name lfoot
     direction 0.0596604 -0.163915 0.984669   
     length 2.39542   
     axis -90 7.62852e-016 20   XYZ
    dof rx rz
    limits (-45.0 90.0)
           (-70.0 20.0)
  end
  begin
     id 5 
     name ltoes
     direction 1.53514e-011 -4.21954e-011 1   
     length 1.2047   
     axis -90 7.62852e-016 20   XYZ
    dof rx
    limits (-90.0 20.0)
  end
  begin
     id 6 
     name rhipjoint
     direction -0.580585 -0.69168 0.429534   
     length 2.52018  
     axis 0 0 0  XYZ 
  end
  begin
     id 7 
     name rfemur
     direction -0.34202 -0.939693 0   
     length 7.0101   
     axis 0 0 -20   XYZ
    dof rx ry rz
    limits (-160.0 20.0)
           (-70.0 70.0)
           (-70.0 60.0)
  end
  begin
     id 8 
     name rtibia
     direction -0.34202 -0.939693 0   
     length 7.70628   
     axis 0 0 -20   XYZ
    dof rx
    limits (-10.0 170.0)
 end
 begin
     id 9 
     name rfoot
     direction -0.0696237 -0.19129 0.979061   
     length 2.52466  
     axis -90 -7.62852e-016 -20   XYZ
    dof rx rz
    limits (-45.0 90.0)
           (-20.0 70.0)
  end
  begin
     id 10 
     name rtoes
     direction -1.53519e-011 -4.21793e-011 1   
     length 1.266   
     axis -90 -7.62852e-016 -20   XYZ
    dof rx
    limits (-90.0 20.0)
  end
  begin
     id 11 
     name lowerback
     direction 0.00381965 0.995707 -0.0924856   
     length 2.20825   
     axis 0 0 0   XYZ
    dof rx ry rz
    limits (-20.0 45.0)
           (-30.0 30.0)
           (-30.0 30.0)
  end
  begin
     id 12 
     name upperback
     direction -0.0139043 0.999634 -0.0231929   
     length 2.21517   
     axis 0 0 0   XYZ
    dof rx ry rz
    limits (-20.0 45.0)
           (-30.0 30.0)
           (-30.0 30.0)
  end
  begin
     id 13 
     name thorax
     direction -0.0143933 0.999691 0.0202892   
     length 2.22911   
     axis 0 0 0   XYZ
    dof rx ry rz
    limits (-20.0 45.0)
           (-30.0 30.0)
           (-30.0 30.0)
  end
  begin
     id 14 
     name lowerneck
     direction -0.0251153 0.981819 0.188153   
     length 1.61782   
     axis 0 0 0   XYZ
    dof rx ry rz
    limits (-20.0 45.0)
           (-30.0 30.0)
           (-30.0 30.0)
  end
  begin
     id 15 
     name upperneck
     direction 0.0563891 0.969357 -0.239095   
     length 1.64526   
     axis 0 0 0   XYZ
    dof rx ry rz
    limits (-20.0 45.0)
           (-30.0 30.0)
           (-30.0 30.0)
  end
  begin
     id 16
     name head
     direction 0.0208328 0.99459 -0.101773  
     length 1.67436  
     axis 0 0 0   XYZ
    dof rx ry rz
    limits (-20.0 45.0)
           (-30.0 30.0)
           (-30.0 30.0)
  end
  begin
     id 17 
     name lclavicle
     direction 0.917689 0.397224 0.00772059  
     length 3.31102  
     axis 0 0 0   XYZ
    dof ry rz
    limits (-20.0 10.0)
           (0.0 20.0)
  end
  begin
     id 18 
     name lhumerus
     direction 1 -4.4896e-011 2.32308e-027   
     length 5.25537   
     axis 180 -30 -90   XYZ
    dof rx ry rz
    limits (-60.0 90.0)
           (-90.0 90.0)
           (-90.0 90.0)
  end
  begin
     id 19
     name lradius
     direction 1 -4.49005e-011 -2.04271e-027   
     length 3.38855   
     axis 180 -30 -90   XYZ
    dof rx
    limits (-10.0 170.0)
  end
  begin
     id 20
     name lwrist
     direction 1 -4.48892e-011 2.56952e-028   
     length 1.69428   
     axis -5.12785e-016 90 90   XYZ
    dof ry
    limits (-180.0 0.0)
 end
  begin
     id 21 
     name lhand
     direction 1 -4.48966e-011 5.13905e-028   
     length 0.614516   
     axis -3.27915e-016 90 90   XYZ
    dof rx rz
    limits (-90.0 90.0)
           (-45.0 45.0)
  end
  begin
     id 22 
     name lfingers
     direction 1 -4.48979e-011 1.02781e-027   
     length 0.495439   
     axis -6.5583e-016 90 90   XYZ
    dof rx
    limits (0.0 90.0)
  end
  begin
     id 23
     name lthumb
     direction 0.707107 -6.35001e-011 0.707107   
     length 0.711354   
     axis -90 45 2.85299e-015   XYZ
    dof rx rz
    limits (-45.0 45.0)
           (-45.0 45.0)
  end
  begin
     id 24 
     name rclavicle
     direction -0.938556 0.342765 -0.0403177   
     length 3.27019  
     axis 0 0 0   XYZ 
    dof ry rz
    limits (-10.0 20.0)
           (-20.0 0.0)
  end
  begin
     id 25 
     name rhumerus
     direction -1 -4.48966e-011 2.52291e-027  
     length 5.38183   
     axis 180 30 90   XYZ
    dof rx ry rz
    limits (-90.0 60.0)
           (-90.0 90.0)
           (-90.0 90.0)
  end
  begin
     id 26 
     name rradius
     direction -1 -4.4896e-011 1.5797e-027   
     length 3.16988   
     axis 180 30 90   XYZ
    dof rx
    limits (-10.0 170.0)
  end
  begin
     id 27 
     name rwrist
     direction -1 -4.48947e-011 2.56952e-028   
     length 1.58494   
     axis -5.12785e-016 -90 -90   XYZ
    dof ry
    limits (-180.0 0.0)
  end
  begin
     id 28
     name rhand
     direction -1 -4.49098e-011 5.13905e-028   
     length 0.637679   
     axis -3.27915e-016 -90 -90   XYZ
    dof rx rz
    limits (-90.0 90.0)
           (-45.0 45.0)
  end
  begin
     id 29
     name rfingers
     direction -1 -4.49026e-011 1.02781e-027   
     length 0.514113   
     axis -6.5583e-016 -90 -90   XYZ
    dof rx
    limits (0.0 90.0)
  end
  begin
     id 30
     name rthumb
     direction -0.707107 -6.3491e-011 0.707107   
     length 0.738167   
     axis -90 -45 -2.85299e-015   XYZ
    dof rx rz
    limits (-45.0 45.0)
           (-45.0 45.0)
  end
:hierarchy
  begin
    root lhipjoint rhipjoint lowerback
    lhipjoint lfemur
    lfemur ltibia
    ltibia lfoot
    lfoot ltoes
    rhipjoint rfemur
    rfemur rtibia
    rtibia rfoot
    rfoot rtoes
    lowerback upperback
    upperback thorax
    thorax lowerneck lclavicle rclavicle
    lowerneck upperneck
    upperneck head
    lclavicle lhumerus
    lhumerus lradius
    lradius lwrist
    lwrist lhand lthumb
    lhand lfingers
    rclavicle rhumerus
    rhumerus rradius
    rradius rwrist
    rwrist rhand rthumb
    rhand rfingers
  end

#!OML:ASF H:\Swim\Project 1\Capture day 1\Session 1\swimmer.ASF
:FULLY-SPECIFIED
:DEGREES
1
root 3.91118 17.4255 -30.0269 5.04621 0.842202 1.48427
lowerback -1.83287 -0.76349 -0.430455
upperback 2.40079 -0.926 -2.49356
thorax 3.46315 -0.437697 -2.37166
lowerneck -17.8666 -4.63163 -8.69872
upperneck 32.1551 -7.15625 9.17477
head 14.8135 -2.90633 4.0203
rclavicle 5.86415e-015 1.59028e-014
rhumerus -12.3437 10.9114 -13.8569
rradius 24.3037
rwrist -18.3789
rhand -8.52145 1.03485
rfingers 7.12502
rthumb 17.407 -28.2057
lclavicle 5.86415e-015 1.59028e-014
lhumerus -17.2262 -0.301352 9.19569
lradius 31.6633
lwrist -8.72694
lhand -16.6815 6.24861
lfingers 7.12502
lthumb 9.54267 36.0125
rfemur -13.2988 24.9596 18.3653
rtibia 34.0068
rfoot -30.7654 -28.7157
rtoes 7.95806
lfemur -13.0966 -16.9348 -22.7733
ltibia 32.6138
lfoot -22.8584 20.9896
ltoes 10.9144
2
root 3.90583 17.4258 -30.0264 5.0785 0.843222 1.54923
lowerback -1.81533 -0.768618 -0.472154
upperback 2.45259 -0.92999 -2.50911
thorax 3.50714 -0.440104 -2.365
lowerneck -18.0566 -4.6386 -8.64878
upperneck 32.1903 -7.1602 9.14218
head 14.8699 -2.90089 3.99705
rclavicle 4.57205e-015 2.22639e-014
rhumerus -12.3336 10.9066 -13.8702
rradius 24.2852
rwrist -18.4507
rhand -8.52788 0.983255
rfingers 7.12502
rthumb 17.4009 -28.2579
lclavicle 4.57205e-015 2.22639e-014
lhumerus -17.1953 -0.21841 9.29467
lradius 31.5453
lwrist -8.87385
lhand -16.6015 6.20947
lfingers 7.12502
lthumb 9.61982 35.9698
rfemur -13.3346 25.0183 18.3047
rtibia 34.0292
rfoot -30.8181 -28.7712
rtoes 7.96267
lfemur -13.1223 -16.9766 -22.8143
ltibia 32.5964
lfoot -21.0371 22.0214
ltoes 4.65825
3
root 3.90029 17.427 -30.0277 5.11678 0.86094 1.51299
lowerback -1.81033 -0.784795 -0.396391
upperback 2.45906 -0.954604 -2.49743
thorax 3.50904 -0.450521 -2.39667
lowerneck -18.0121 -4.63683 -8.7125
upperneck 32.1755 -7.16208 9.20987
head 14.8596 -2.9019 4.03663
rclavicle -9.14409e-015 -4.77083e-015
rhumerus -12.312 10.9409 -13.8979
rradius 24.2099
rwrist -18.3627
rhand -8.54943 1.117
rfingers 7.12502
rthumb 17.3801 -28.126
lclavicle -9.14409e-015 -4.77083e-015
lhumerus -17.189 -0.213653 9.37709
lradius 31.4135
lwrist -9.03507
lhand -16.5868 6.11589
lfingers 7.12502
lthumb 9.63403 35.8756
rfemur -13.3706 25.0669 18.3555
rtibia 34.0139
rfoot -30.8462 -28.8282
rtoes 8.05627
lfemur -13.1916 -16.8841 -22.7275
ltibia 32.6204
lfoot -22.9057 20.8542
ltoes 11.1033
4
root 3.89399 17.4273 -30.0269 5.15322 0.896368 1.51405
lowerback -1.7827 -0.800256 -0.370481
upperback 2.42864 -0.977554 -2.49188
thorax 3.46069 -0.46177 -2.40555
lowerneck -17.9528 -4.62801 -8.70931
upperneck 32.1945 -7.1497 9.19156
head 14.852 -2.90026 4.03179
rclavicle -1.59028e-014 -2.38542e-015
rhumerus -12.3296 11.0473 -13.9017
rradius 24.1398
rwrist -18.4013
rhand -8.53548 1.35331
rfingers 7.12502
rthumb 17.3935 -27.8885
lclavicle -1.59028e-014 -2.38542e-015
lhumerus -17.2224 -0.316946 9.44675
lradius 31.3396
lwrist -9.16129
lhand -16.3879 5.99248
lfingers 7.12502
lthumb 9.82593 35.7432
rfemur -13.3782 25.3096 18.391
rtibia 34.0077
rfoot -31.0615 -28.9951
rtoes 8.25737
lfemur -13.2475 -16.82 -22.6811
ltibia 32.6374
lfoot -22.7024 20.8766
ltoes 10.3687
5
root 3.88786 17.4277 -30.0268 5.18745 0.924199 1.51823
lowerback -1.75549 -0.813712 -0.341246
upperback 2.42062 -0.997183 -2.49304
thorax 3.43573 -0.470966 -2.42342
lowerneck -17.9455 -4.62393 -8.72091
upperneck 32.2104 -7.14659 9.20563
head 14.8586 -2.89871 4.04123
rclavicle 6.36111e-015 0
rhumerus -12.3422 11.1201 -13.9174
rradius 24.0646
rwrist -18.4023
rhand -8.54498 1.57928
rfingers 7.12502
rthumb 17.3844 -27.6633
lclavicle 6.36111e-015 0
lhumerus -17.224 -0.359929 9.51608
lradius 31.2453
lwrist -9.29856
lhand -16.3168 5.91047
lfingers 7.12502
lthumb 9.89451 35.658
rfemur -13.3879 25.4927 18.4161
rtibia 33.993
rfoot -31.2165 -29.1287
rtoes 8.42361
lfemur -13.3068 -16.7635 -22.6411
ltibia 32.6646
lfoot -22.813 20.723
ltoes 10.7334
6
root 3.88151 17.4279 -30.0265 5.21998 0.957602 1.52675
lowerback -1.73084 -0.826325 -0.315297
upperback 2.41415 -1.01537 -2.49756
thorax 3.41388 -0.479464 -2.44292
lowerneck -17.9396 -4.62078 -8.73185
upperneck 32.2252 -7.1457 9.22206
head 14.8653 -2.89766 4.0511
rclavicle 9.44227e-015 7.95139e-015
rhumerus -12.3625 11.189 -13.932
rradius 23.9876
rwrist -18.4003
rhand -8.54579 1.81698
rfingers 7.12502
rthumb 17.3836 -27.4257
lclavicle 9.44227e-015 7.95139e-015
lhumerus -17.2144 -0.39936 9.57991
lradius 31.155
lwrist -9.42984
lhand -16.2307 5.90151
lfingers 7.12502
lthumb 9.97759 35.645
rfemur -13.3949 25.7063 18.4424
rtibia 33.9867
rfoot -31.4043 -29.2811
rtoes 8.61569
lfemur -13.3625 -16.6962 -22.6048
ltibia 32.6876
lfoot -22.9338 20.5469
ltoes 11.1557
7
root 3.87497 17.4279 -30.026 5.24978 0.995767 1.54388
lowerback -1.71138 -0.836923 -0.298382
upperback 2.41652 -1.03012 -2.50637
thorax 3.4043 -0.486308 -2.46186
lowerneck -17.9519 -4.61986 -8.73405
upperneck 32.2375 -7.14805 9.23471
head 14.8749 -2.89688 4.05697
rclavicle -1.15295e-014 -3.18055e-015
rhumerus -12.388 11.2425 -13.9445
rradius 23.9203
rwrist -18.3985
rhand -8.5278 2.02327
rfingers 7.12502
rthumb 17.4009 -27.2178
lclavicle -1.15295e-014 -3.18055e-015
lhumerus -17.1915 -0.428511 9.64028
lradius 31.0733
lwrist -9.54191
lhand -16.1355 5.94528
lfingers 7.12502
lthumb 10.0695 35.6844
rfemur -13.3969 25.9408 18.4647
rtibia 33.986
rfoot -31.6164 -29.4465
rtoes 8.82218
lfemur -13.4121 -16.6299 -22.5783
ltibia 32.706
lfoot -22.9108 20.4516
ltoes 11.0901
8
root 3.86824 17.4278 -30.0255 5.27717 1.03578 1.56444
lowerback -1.701 -0.846024 -0.287261
upperback 2.4327 -1.04215 -2.51637
thorax 3.41435 -0.491743 -2.47906
lowerneck -17.9914 -4.62105 -8.7329
upperneck 32.2451 -7.1521 9.24741
head 14.8887 -2.89562 4.06157
rclavicle -6.06293e-015 -2.38542e-015
rhumerus -12.4072 11.2705 -13.9532
rradius 23.8661
rwrist -18.3959
rhand -8.48644 2.17898
rfingers 7.12502
rthumb 17.4407 -27.0586
lclavicle -6.06293e-015 -2.38542e-015
lhumerus -17.1544 -0.425929 9.69939
lradius 30.9939
lwrist -9.64035
lhand -16.0579 6.01383
lfingers 7.12502
lthumb 10.1443 35.7493
rfemur -13.3972 26.1904 18.4869
rtibia 33.9906
rfoot -31.842 -29.6201
rtoes 9.03057
lfemur -13.457 -16.5601 -22.5557
ltibia 32.7204
lfoot -22.8772 20.3564
ltoes 11.002
9
root 3.86138 17.4275 -30.0248 5.30285 1.07607 1.58523
lowerback -1.69714 -0.854488 -0.276686
upperback 2.454 -1.05306 -2.52704
thorax 3.4334 -0.496537 -2.49681
lowerneck -18.0357 -4.62136 -8.72967
upperneck 32.2475 -7.15387 9.25796
head 14.9006 -2.89327 4.06505
rclavicle 4.96962e-015 -1.35174e-014
rhumerus -12.4219 11.2809 -13.9602
rradius 23.8284
rwrist -18.3806
rhand -8.4254 2.28151
rfingers 7.12502
rthumb 17.4995 -26.9509
lclavicle 4.96962e-015 -1.35174e-014
lhumerus -17.1161 -0.407768 9.75431
lradius 30.9219
lwrist -9.71954
lhand -15.9609 6.08276
lfingers 7.12502
lthumb 10.2379 35.8136
rfemur -13.3986 26.4413 18.5103
rtibia 34.0004
rfoot -32.0685 -29.7951
rtoes 9.22693
lfemur -13.4965 -16.4939 -22.5339
ltibia 32.7296
lfoot -22.8502 20.2615
ltoes 10.9334
10
root 3.85438 17.4273 -30.0239 5.32705 1.11522 1.60787
lowerback -1.69312 -0.86393 -0.270304
upperback 2.47307 -1.06522 -2.53657
thorax 3.4501 -0.5021 -2.51106
lowerneck -18.0756 -4.61819 -8.72561
upperneck 32.2491 -7.14857 9.26192
head 14.9099 -2.8888 4.06688
rclavicle 5.96354e-016 -1.51076e-014
rhumerus -12.4249 11.2834 -13.9648
rradius 23.8094
rwrist -18.3569
rhand -8.34538 2.30735
rfingers 7.12502
rthumb 17.5765 -26.9181
lclavicle 5.96354e-016 -1.51076e-014
lhumerus -17.0891 -0.391302 9.80597
lradius 30.8616
lwrist -9.77535
lhand -15.8923 6.1416
lfingers 7.12502
lthumb 10.3041 35.8692
rfemur -13.403 26.6766 18.5307
rtibia 34.0144
rfoot -32.2837 -29.9572
rtoes 9.40202
lfemur -13.5307 -16.4352 -22.5147
ltibia 32.7331
lfoot -22.8299 20.1714
ltoes 10.8847
11
root 3.84728 17.4271 -30.0229 5.35102 1.15237 1.63026
lowerback -1.68241 -0.874025 -0.262894
upperback 2.47794 -1.07873 -2.54609
thorax 3.44824 -0.508495 -2.52554
lowerneck -18.0858 -4.60972 -8.72711
upperneck 32.2513 -7.13557 9.26519
head 14.9118 -2.88266 4.07106
rclavicle 2.08724e-014 7.95139e-015
rhumerus -12.4278 11.2912 -13.9691
rradius 23.7955
rwrist -18.3198
rhand -8.26514 2.33795
rfingers 7.12502
rthumb 17.6537 -26.8806
lclavicle 2.08724e-014 7.95139e-015
lhumerus -17.0792 -0.396593 9.85137
lradius 30.8155
lwrist -9.81346
lhand -15.8497 6.1619
lfingers 7.12502
lthumb 10.3452 35.8874
rfemur -13.4121 26.8856 18.5482
rtibia 34.0314
rfoot -32.4819 -30.097
rtoes 9.55778
lfemur -13.5601 -16.3942 -22.4963
ltibia 32.7308
lfoot -22.8216 20.093
ltoes 10.8655
12
root 3.8401 17.427 -30.0218 5.37427 1.18727 1.65038
lowerback -1.66494 -0.882217 -0.254459
upperback 2.47181 -1.09013 -2.55478
thorax 3.43124 -0.513976 -2.53932
lowerneck -18.076 -4.60037 -8.73041
upperneck 32.256 -7.12119 9.26505
head 14.9099 -2.87716 4.0746
rclavicle 5.56597e-015 4.77083e-015
rhumerus -12.4351 11.3072 -13.9725
rradius 23.7864
rwrist -18.2799
rhand -8.2013 2.34233
rfingers 7.12502
rthumb 17.7151 -26.8707
lclavicle 5.56597e-015 4.77083e-015
lhumerus -17.0774 -0.422676 9.89385
lradius 30.7823
lwrist -9.83582
lhand -15.8283 6.16922
lfingers 7.12502
lthumb 10.3658 35.8937
rfemur -13.4257 27.0546 18.5644
rtibia 34.0502
rfoot -32.6493 -30.2103
rtoes 9.68898
lfemur -13.5845 -16.366 -22.4765
ltibia 32.7231
lfoot -22.8162 20.0294
ltoes 10.8414
13
root 3.83288 17.4269 -30.0206 5.39723 1.2201 1.66888
lowerback -1.64706 -0.887866 -0.246617
upperback 2.4604 -1.09826 -2.56263
thorax 3.4087 -0.517922 -2.55163
lowerneck -18.0566 -4.59149 -8.73207
upperneck 32.2625 -7.1072 9.25999
head 14.9065 -2.87252 4.0758
rclavicle 1.35174e-014 -6.36111e-015
rhumerus -12.4458 11.3237 -13.9748
rradius 23.78
rwrist -18.2518
rhand -8.15334 2.33386
rfingers 7.12502
rthumb 17.7613 -26.875
lclavicle 1.35174e-014 -6.36111e-015
lhumerus -17.0793 -0.458053 9.93362
lradius 30.7605
lwrist -9.85379
lhand -15.8264 6.14225
lfingers 7.12502
lthumb 10.3676 35.8667
rfemur -13.4428 27.1716 18.5775
rtibia 34.0689
rfoot -32.7778 -30.2901
rtoes 9.7838
lfemur -13.6036 -16.3547 -22.4562
ltibia 32.7112
lfoot -22.8168 19.9779
ltoes 10.839
14
root 3.82559 17.4268 -30.0191 5.41967 1.25145 1.68601
lowerback -1.63456 -0.891441 -0.242411
upperback 2.45031 -1.10347 -2.56732
thorax 3.39081 -0.520513 -2.55864
lowerneck -18.0411 -4.58456 -8.73403
upperneck 32.2717 -7.094 9.24961
head 14.905 -2.86883 4.07472
rclavicle -6.4605e-015 -1.59028e-014
rhumerus -12.4533 11.345 -13.9727
rradius 23.7771
rwrist -18.2602
rhand -8.12178 2.30204
rfingers 7.12502
rthumb 17.7917 -26.9041
lclavicle -6.4605e-015 -1.59028e-014
lhumerus -17.0822 -0.488786 9.97457
lradius 30.7463
lwrist -9.87425
lhand -15.815 6.14239
lfingers 7.12502
lthumb 10.3786 35.8663
rfemur -13.4615 27.2372 18.5881
rtibia 34.0854
rfoot -32.8647 -30.3386
rtoes 9.85303
lfemur -13.6195 -16.3453 -22.4348
ltibia 32.6971
lfoot -22.8108 19.9355
ltoes 10.811
